<?xml version="1.0" encoding="UTF-8"?>
<!DOCTYPE svg PUBLIC "-//W3C//DTD SVG 1.1//EN" "http://www.w3.org/Graphics/SVG/1.1/DTD/svg11.dtd">
<!-- Creator: CorelDRAW 2018 (64-Bit) -->
<svg xmlns="http://www.w3.org/2000/svg" xml:space="preserve" width="2560px" height="1440px" version="1.1" style="shape-rendering:geometricPrecision; text-rendering:geometricPrecision; image-rendering:optimizeQuality; fill-rule:evenodd; clip-rule:evenodd"
viewBox="0 0 2560 1440"
 xmlns:xlink="http://www.w3.org/1999/xlink">
 <defs>
  <style type="text/css">
   <![CDATA[
    .fil0 {fill:black;fill-opacity:0.458824}
   ]]>
  </style>
 </defs>
 <g id="Слой_x0020_1">
  <metadata id="CorelCorpID_0Corel-Layer"/>
  <g id="_2206712727040">
   <path class="fil0" d="M0 0l780 0 0 324.45c-51.19,-25.86 -109.04,-40.44 -170.31,-40.44 -104.43,0 -198.98,42.34 -267.42,110.77 -68.44,68.44 -110.77,163 -110.77,267.43 0,104.43 42.33,198.98 110.77,267.42 68.44,68.44 162.99,110.78 267.42,110.78 61.27,0 119.12,-14.58 170.31,-40.44l0 440.03 -780 0 0 -1440zm780 351.9l0 118.47 -163.34 0c-40.45,0 -67.61,25.17 -67.61,63.41l0 257.14c0,38.23 26.6,63.19 67.61,63.19l163.34 -0.01 0 118.42c-50.53,27.78 -108.57,43.6 -170.31,43.6 -97.73,0 -186.2,-39.61 -250.25,-103.66 -64.04,-64.04 -103.65,-152.52 -103.65,-250.25 0,-97.73 39.61,-186.21 103.65,-250.25 64.05,-64.05 152.52,-103.66 250.25,-103.66 61.74,0 119.78,15.81 170.31,43.6zm0 149.74l0 321.42 -157.24 0c-23.83,0 -37.14,-13.86 -37.14,-39.91l0 -114.8 165.28 0 0 -28.26 -165.26 0c0,-1.62 -0.01,-3.08 -0.02,-4.34l0 -93.66c0,-26.6 13.31,-40.45 37.14,-40.45l157.24 0z"/>
   <path class="fil0" d="M987.89 662.21c0,-104.43 -42.33,-198.99 -110.77,-267.43 -28.29,-28.29 -61.05,-52.11 -97.12,-70.33l0 27.45c29.46,16.2 56.36,36.47 79.95,60.06 58.7,58.7 96.88,137.95 102.83,226.03l-94.5 -167.62 -39.38 0 105.75 184.77 -112.87 198.97 39.93 0 101.78 -182.72c-2.4,94.08 -41.51,179.04 -103.54,241.07 -23.59,23.59 -50.49,43.86 -79.95,60.06l0 27.45c36.07,-18.22 68.83,-42.05 97.12,-70.34 68.44,-68.44 110.77,-162.99 110.77,-267.42z"/>
  </g>
 </g>
</svg>
