<?xml version="1.0" encoding="UTF-8"?>
<!DOCTYPE svg PUBLIC "-//W3C//DTD SVG 1.1//EN" "http://www.w3.org/Graphics/SVG/1.1/DTD/svg11.dtd">
<!-- Creator: CorelDRAW 2018 (64-Bit) -->
<svg xmlns="http://www.w3.org/2000/svg" xml:space="preserve" width="2008px" height="827px" version="1.1" style="shape-rendering:geometricPrecision; text-rendering:geometricPrecision; image-rendering:optimizeQuality; fill-rule:evenodd; clip-rule:evenodd"
viewBox="0 0 2008 826.82"
 xmlns:xlink="http://www.w3.org/1999/xlink">
 <defs>
  <style type="text/css">
   <![CDATA[
    .fil1 {fill:white}
    .fil0 {fill:white;fill-rule:nonzero}
   ]]>
  </style>
 </defs>
 <g id="Слой_x0020_1">
  <metadata id="CorelCorpID_0Corel-Layer"/>
  <path class="fil0" d="M917.14 675.89l30.59 0 0 -134.88c20.62,0 49.41,-0.21 81.41,-0.21 71.53,0 97.42,-22.02 97.42,-103.27 0,-80.76 -25.35,-100.29 -100.18,-100.37 -50.82,-0.05 -74.32,-0.19 -109.26,0.01l0.02 338.72zm30.59 -162.99l0 -150.26c18.82,-0.49 46.12,-0.98 77.65,-0.98 51.76,0 69.65,15.67 69.65,75.87 0,59.71 -17.89,74.88 -69.65,75.37l-77.65 0z"/>
  <path class="fil0" d="M1352.26 648.65l-133.71 0c-20.23,0 -31.53,-12.23 -31.53,-35.24l0 -104.24 144.95 0 0 -25.95 -144.95 0 0 -82.71c0,-23.49 11.3,-35.73 31.53,-35.73l133.71 0 0 -27.61c-44.43,0 -92.76,0 -138.88,0 -34.36,0 -57.42,22.23 -57.42,56l0 227.1c0,33.77 22.59,55.81 57.42,55.81 46.11,0 94.65,-0.01 138.88,-0.01l0 -27.42z"/>
  <path class="fil0" d="M1618.07 676.06l-33.09 -107.46c-8.04,-26.12 -22.12,-43.07 -38.59,-47.96l0 -1.96c42.35,-6.36 59.77,-31.32 59.77,-88.1 0,-75.86 -28.24,-93.41 -101.18,-93.41 -50.83,0 -73.97,0 -108.71,0l0 338.91 30.59 0 0 -144.99c18.77,0 45.65,0 80.47,0 22.59,0 38.32,10.21 46.59,38.49l31.13 106.49 33.02 -0.01zm-191.21 -173.04l0 -140.47c18.82,-0.49 46.12,0.07 78.12,0.07 51.76,0 70.12,13.63 70.12,69.43 0,55.31 -18.36,70.48 -70.12,70.97l-78.12 0z"/>
  <polygon class="fil0" points="1867.64,366.25 1867.64,337.17 1620.58,337.17 1620.58,366.25 1728.35,366.25 1728.35,676.08 1759.41,676.08 1759.41,366.25 "/>
  <path class="fil1" d="M226.81 670.56c-66.52,-66.52 -107.67,-158.43 -107.67,-259.95 0,-101.51 41.15,-193.42 107.67,-259.94 66.52,-66.51 158.43,-107.66 259.95,-107.66 101.52,0 193.43,41.15 259.95,107.66 66.52,66.52 107.67,158.43 107.67,259.94 0,87.02 -30.24,166.98 -80.78,229.94l-76.39 -140.17 89.78 -163.18 -33.89 0 -81.3 149.97 -15.06 0 -81.3 -149.97 -163.49 0c-34.35,0 -57.42,22.23 -57.42,56l0 227.1c0,33.77 22.59,55.81 57.42,55.81l124 0 33.91 0 87.82 -163.98 13.18 0 81.64 152.5c-1.9,2 -3.84,3.97 -5.79,5.93 -66.52,66.51 -158.43,107.66 -259.95,107.66 -101.52,0 -193.43,-41.15 -259.95,-107.66zm650.83 -259.95c0,-107.92 -43.76,-205.64 -114.49,-276.38 -70.74,-70.73 -168.47,-114.48 -276.39,-114.48 -107.93,0 -205.66,43.75 -276.39,114.48 -70.73,70.74 -114.49,168.46 -114.49,276.38 0,107.93 43.76,205.65 114.49,276.38 70.73,70.74 168.46,114.49 276.39,114.49 107.92,0 205.65,-43.75 276.39,-114.49 7.09,-7.08 13.9,-14.45 20.43,-22.05 60.97,-71.55 94.06,-160.21 94.06,-254.33zm-326.8 238.07l-133.71 0c-20.24,0 -31.53,-12.23 -31.53,-35.24l0 -101.39 140.35 0 0 -24.96 -140.34 0 -0.01 -3.83 0 -82.72c0,-23.49 11.29,-35.73 31.53,-35.73l140.23 0 74.44 135.57 -80.96 148.3z"/>
 </g>
</svg>
