<?xml version="1.0" encoding="UTF-8"?>
<!DOCTYPE svg PUBLIC "-//W3C//DTD SVG 1.1//EN" "http://www.w3.org/Graphics/SVG/1.1/DTD/svg11.dtd">
<!-- Creator: CorelDRAW 2018 (64-Bit) -->
<svg xmlns="http://www.w3.org/2000/svg" xml:space="preserve" width="2480px" height="2480px" version="1.1" style="shape-rendering:geometricPrecision; text-rendering:geometricPrecision; image-rendering:optimizeQuality; fill-rule:evenodd; clip-rule:evenodd"
viewBox="0 0 2480 2480"
 xmlns:xlink="http://www.w3.org/1999/xlink">
 <defs>
  <style type="text/css">
   <![CDATA[
    .fil1 {fill:white}
    .fil0 {fill:white;fill-rule:nonzero}
   ]]>
  </style>
 </defs>
 <g id="Слой_x0020_1">
  <metadata id="CorelCorpID_0Corel-Layer"/>
  <path class="fil0" d="M1160.81 1471.02l26.96 0 0 -118.88c18.17,0 43.55,-0.19 71.76,-0.19 63.05,0 85.86,-19.41 85.86,-91.02 0,-71.19 -22.34,-88.4 -88.29,-88.47 -44.8,-0.05 -65.51,-0.17 -96.31,0l0.02 298.56zm26.96 -143.66l0 -132.44c16.59,-0.43 40.65,-0.86 68.44,-0.86 45.63,0 61.39,13.8 61.39,66.87 0,52.63 -15.76,66 -61.39,66.43l-68.44 0z"/>
  <path class="fil0" d="M1544.33 1447.02l-117.85 0c-17.84,0 -27.8,-10.78 -27.8,-31.06l0 -91.89 127.76 0 0 -22.87 -127.76 0 0 -72.9c0,-20.71 9.96,-31.5 27.8,-31.5l117.85 0 0 -24.34c-39.16,0 -81.77,0 -122.42,0 -30.28,0 -50.6,19.6 -50.6,49.37l0 200.17c0,29.76 19.91,49.19 50.6,49.19 40.65,0 83.43,0 122.42,0l0 -24.17z"/>
  <path class="fil0" d="M1778.61 1471.17l-29.17 -94.71c-7.09,-23.03 -19.49,-37.96 -34.01,-42.28l0 -1.72c37.33,-5.61 52.68,-27.61 52.68,-77.66 0,-66.87 -24.89,-82.34 -89.18,-82.34 -44.8,0 -65.2,0 -95.82,0l0 298.73 26.97 0 0 -127.8c16.54,0 40.23,0 70.92,0 19.91,0 33.78,9 41.07,33.93l27.44 93.87 29.1 -0.02zm-168.53 -152.52l0 -123.81c16.59,-0.43 40.64,0.06 68.85,0.06 45.63,0 61.8,12.02 61.8,61.2 0,48.75 -16.17,62.12 -61.8,62.55l-68.85 0z"/>
  <polygon class="fil0" points="1998.58,1198.1 1998.58,1172.46 1780.82,1172.46 1780.82,1198.1 1875.81,1198.1 1875.81,1471.19 1903.18,1471.19 1903.18,1198.1 "/>
  <path class="fil1" d="M552.35 1466.32c-58.63,-58.63 -94.9,-139.64 -94.9,-229.12 0,-89.48 36.27,-170.49 94.9,-229.12 58.63,-58.63 139.64,-94.89 229.12,-94.89 89.48,0 170.49,36.27 229.12,94.89 58.63,58.63 94.9,139.64 94.9,229.12 0,76.7 -26.65,147.18 -71.19,202.68l-67.34 -123.55 79.13 -143.84 -29.87 0 -71.65 132.19 -13.28 0 -71.66 -132.19 -144.09 0c-30.28,0 -50.61,19.6 -50.61,49.36l0 200.17c0,29.77 19.91,49.2 50.61,49.2l109.29 0 29.88 0 77.41 -144.54 11.61 0 71.96 134.42c-1.67,1.76 -3.38,3.51 -5.1,5.22 -58.63,58.63 -139.64,94.9 -229.12,94.9 -89.48,0 -170.49,-36.26 -229.12,-94.9zm573.65 -229.12c0,-95.12 -38.57,-181.26 -100.92,-243.61 -62.35,-62.34 -148.49,-100.91 -243.61,-100.91 -95.13,0 -181.26,38.57 -243.61,100.91 -62.34,62.35 -100.91,148.49 -100.91,243.61 0,95.13 38.57,181.27 100.91,243.61 62.35,62.35 148.48,100.92 243.61,100.92 95.12,0 181.26,-38.57 243.61,-100.92 6.25,-6.24 12.26,-12.74 18,-19.44 53.75,-63.07 82.92,-141.21 82.92,-224.17zm-288.05 209.85l-117.85 0c-17.84,0 -27.79,-10.79 -27.79,-31.07l0 -89.37 123.7 0 0 -22 -123.69 0 -0.01 -3.38 0 -72.91c0,-20.7 9.95,-31.49 27.79,-31.49l123.59 0 65.62 119.5 -71.36 130.72z"/>
 </g>
</svg>
